<svg width="681" height="680" viewBox="0 0 681 680" fill="none" xmlns="http://www.w3.org/2000/svg">
<g filter="url(#filter0_d)">
<path d="M399.864 576.636C538.563 543.85 624.422 404.834 591.636 266.136C558.85 127.437 419.834 41.5782 281.136 74.3641C142.437 107.15 56.5782 246.166 89.3641 384.864C122.15 523.563 261.166 609.422 399.864 576.636Z" fill="url(#paint0_linear)"/>
<g style="mix-blend-mode:multiply" opacity="0.5">
<g style="mix-blend-mode:multiply" opacity="0.5">
<path d="M220.557 165.96C218.259 177.506 219.429 193.07 229.246 196.542C232.02 197.133 234.87 197.046 237.613 196.288C240.356 195.53 242.932 194.117 245.173 192.14C257.943 183.012 268.178 169.693 281.077 160.838C293.975 151.983 311.75 148.573 323.252 159.709C336.001 172.111 334.551 195.587 327.71 213.123C321.146 225.752 316.181 239.4 312.963 253.652C312.232 259.636 312.641 265.732 314.16 271.515C315.679 277.299 318.272 282.63 321.759 287.136C325.316 291.575 329.785 294.906 334.752 296.823C339.719 298.739 345.025 299.178 350.178 298.099C357.875 295.721 364.962 291.238 370.841 285.028C382.884 273.698 393.596 260.603 402.707 246.074C419.3 219.597 433.433 185.914 460.874 177.865C469.772 175.555 479.049 176.118 487.688 179.494C496.327 182.869 503.994 188.926 509.848 197.001C515.539 205.224 519.445 214.9 521.239 225.221C523.032 235.542 522.662 246.208 520.159 256.33C518.828 262.901 515.938 268.913 511.814 273.693C506.879 278.184 501.081 281.238 494.909 282.597C471.694 287.414 448.947 294.866 427 304.846C422.901 306.611 419.175 309.365 416.069 312.923C412.964 316.481 410.55 320.763 408.989 325.482C407.893 335.152 409.865 344.954 414.542 353.076C417.896 362.405 423.374 370.513 430.394 376.54C444.464 386.548 462.614 378.474 477.489 370.277L559.875 325.073C565.532 322.687 570.481 318.483 574.138 312.956C576.415 307.86 577.58 302.197 577.531 296.462C579.475 272.824 578.389 248.984 574.309 225.711C570.137 202.306 559.601 181.051 544.238 165.042C525.967 149.091 504.076 139.612 481.226 137.759C458.672 134.596 435.689 134.881 413.275 130.317C404.87 129.126 396.799 125.792 389.647 120.557C383.882 114.989 378.624 108.756 373.956 101.955C325.25 41.5838 234.337 96.6594 220.557 165.96Z" fill="#CC6338"/>
<path d="M422.952 253.975C423.472 256.885 424.78 259.528 426.688 261.521C428.596 263.514 431.003 264.755 433.562 265.062C435.388 265.46 437.259 265.494 439.094 265.161C450.96 263.222 461.817 256.39 469.66 245.926C472.204 241.849 473.573 236.951 473.573 231.925C473.573 226.899 472.204 222.001 469.66 217.923C468.096 215.557 465.866 213.895 463.355 213.223C460.859 213.094 458.38 213.758 456.189 215.145C453.997 216.532 452.178 218.587 450.929 221.086C448.49 226.109 445.441 230.702 441.875 234.727C438.25 237.316 434.37 239.398 430.319 240.928C427.998 241.827 426.008 243.604 424.671 245.972C423.334 248.34 422.728 251.16 422.952 253.975Z" fill="#CC6338"/>
<path d="M246.376 240.022C242.064 249.096 240.407 259.536 241.65 269.786C242.563 274.746 244.572 279.36 245.334 284.333C246.462 291.662 245.216 300.455 249.995 305.416C251.6 306.902 253.525 307.854 255.564 308.166C257.603 308.479 259.678 308.141 261.562 307.189C265.317 305.207 268.486 302 270.681 297.962C275.568 289.732 277.948 279.86 277.447 269.897C276.102 262.418 275.902 254.724 276.856 247.165C279.918 239.53 284.594 232.907 290.453 227.905C300.634 216.422 307.873 183.78 284.836 190.204C268.103 194.942 253.067 223.54 246.376 240.022Z" fill="#CC6338"/>
<path d="M213.05 233.45C218.209 244.057 220.393 256.25 219.301 268.349C217.282 282.983 208.163 297.356 212.459 311.32C214.532 318.03 219.43 323.127 221.749 329.724C226.754 343.899 218.731 359.228 212.234 372.56C200.874 392.314 196.764 416.465 200.806 439.715C206.477 462.211 229.407 479.611 247.697 469.478C265.063 459.842 268.822 432.1 262.733 410.992C256.01 387.64 241.758 354.515 270.122 341.146C289.808 331.87 310.741 347.099 319.988 366.644C322.822 375.158 327.834 382.473 334.357 387.615C348.813 395.8 365.428 377.309 381.216 380.968C407.69 387.094 408.947 433.687 413.167 456.99C414.546 463.233 415.207 469.659 415.133 476.101C413.887 500.966 392.31 517.026 372.602 527.22C351.079 538.278 328.809 547.287 306.015 554.157C284.786 563.527 261.733 565.973 239.38 561.227C217.028 556.48 196.237 544.724 179.284 527.245C159.952 510.553 140.845 490.487 134.079 463.687C129.481 440.672 131.227 416.572 139.073 394.759C143.975 381.99 147.377 368.523 149.19 354.714C149.254 338.784 146.506 323.007 141.114 308.344C131.448 276.298 129.3 243.781 152.036 217.911C172.861 194.261 201.021 205.683 213.05 233.45Z" fill="#CC6338"/>
<g style="mix-blend-mode:multiply" opacity="0.5">
<path d="M381.699 338.642C382.376 323.536 355.752 319.27 347.396 324.9C329.611 336.893 338.514 358.831 356.772 358.608C362.387 358.783 367.943 357.247 372.882 354.156C375.325 352.581 377.403 350.349 378.938 347.647C380.473 344.946 381.421 341.856 381.699 338.642Z" fill="#D16111"/>
</g>
</g>
</g>
<g style="mix-blend-mode:multiply" opacity="0.2">
<path d="M375.451 549.646C325.445 549.706 276.483 535.437 234.449 508.551C192.415 481.666 159.095 443.308 138.492 398.084C117.888 352.861 110.878 302.695 118.303 253.614C125.728 204.532 147.271 158.621 180.347 121.397C151.831 143.554 128.296 171.383 111.25 203.096C94.2051 234.81 84.0263 269.71 81.3667 305.557C78.707 341.404 83.6248 377.406 95.8054 411.256C107.986 445.106 127.161 476.056 152.099 502.121C177.037 528.185 207.188 548.789 240.619 562.611C274.049 576.433 310.022 583.168 346.229 582.384C382.436 581.599 418.078 573.313 450.87 558.057C483.661 542.801 512.878 520.911 536.647 493.792C490.828 529.971 434.002 549.661 375.451 549.646Z" fill="#222226"/>
</g>
<g style="mix-blend-mode:overlay" opacity="0.39">
<path d="M339.424 65.6654C298.596 65.6705 258.359 75.5007 222.054 94.3396C183.814 140.311 162.508 198.206 161.749 258.21C160.99 318.215 180.823 376.639 217.888 423.58C254.953 470.521 306.97 503.092 365.122 515.773C423.274 528.454 483.984 520.464 536.963 493.159C568.571 455.233 588.782 408.991 595.22 359.873C601.658 310.755 594.053 260.804 573.302 215.896C552.551 170.989 519.517 132.993 478.084 106.379C436.652 79.7653 388.545 65.6402 339.424 65.6654Z" fill="white"/>
</g>
</g>
<defs>
<filter id="filter0_d" x="0.947369" y="0.473623" width="679.105" height="679.105" filterUnits="userSpaceOnUse" color-interpolation-filters="sRGB">
<feFlood flood-opacity="0" result="BackgroundImageFix"/>
<feColorMatrix in="SourceAlpha" type="matrix" values="0 0 0 0 0 0 0 0 0 0 0 0 0 0 0 0 0 0 127 0"/>
<feOffset dy="14.5263"/>
<feGaussianBlur stdDeviation="14.5263"/>
<feColorMatrix type="matrix" values="0 0 0 0 0.976471 0 0 0 0 0.521569 0 0 0 0 0 0 0 0 0.29 0"/>
<feBlend mode="normal" in2="BackgroundImageFix" result="effect1_dropShadow"/>
<feBlend mode="normal" in="SourceGraphic" in2="effect1_dropShadow" result="shape"/>
</filter>
<linearGradient id="paint0_linear" x1="89.3641" y1="384.864" x2="591.636" y2="266.136" gradientUnits="userSpaceOnUse">
<stop stop-color="#D46C36"/>
<stop offset="1" stop-color="#7C262F"/>
</linearGradient>
</defs>
</svg>
