<svg width="472" height="578" viewBox="0 0 472 578" fill="none" xmlns="http://www.w3.org/2000/svg">
<g filter="url(#filter0_d)">
<path d="M288.597 534C431.89 534 548.053 417.838 548.053 274.544C548.053 131.25 431.89 15.088 288.597 15.088C145.303 15.088 29.1408 131.25 29.1408 274.544C29.1408 417.838 145.303 534 288.597 534Z" fill="url(#paint0_linear)"/>
<path opacity="0.244001" fill-rule="evenodd" clip-rule="evenodd" d="M505.603 416.813C459.235 487.396 379.358 533.999 288.596 533.999C262.29 533.999 236.899 530.084 212.972 522.805C230.22 515.287 260.216 501.868 271.896 494.519C283.705 487.09 294.548 480.011 304.698 473.383C339.686 450.538 366.442 433.068 396.173 425.188C455.854 409.37 492.595 414.071 505.603 416.813Z" fill="url(#paint1_linear)"/>
<path opacity="0.506975" fill-rule="evenodd" clip-rule="evenodd" d="M498.976 426.423C484.809 428.344 468.825 431.385 451.218 436.05C383.058 454.11 314.337 520.316 300.955 533.71C382.442 529.889 454.1 488.477 498.976 426.423Z" fill="url(#paint2_linear)"/>
<path opacity="0.193522" fill-rule="evenodd" clip-rule="evenodd" d="M509.703 138.719C464.04 64.5419 382.093 15.0873 288.596 15.0873C273.007 15.0873 257.739 16.4622 242.906 19.0973C255.302 62.1818 285.535 137.776 342.789 124.957C413.43 109.141 421.911 115.867 459.058 145.327C463.635 148.956 468.646 152.93 474.261 157.25C496.511 174.363 506.04 160.205 509.703 138.719Z" fill="url(#paint3_linear)"/>
<path opacity="0.150902" fill-rule="evenodd" clip-rule="evenodd" d="M483.597 103.388C436.045 49.2551 366.311 15.0872 288.596 15.0872C282.053 15.0872 275.566 15.3294 269.144 15.8054C278.986 50.1924 303.165 111.119 349.103 100.831C405.578 88.1828 412.358 93.5612 442.055 117.119C445.714 120.022 449.72 123.199 454.209 126.654C474.788 142.486 481.756 124.847 483.597 103.388Z" fill="url(#paint4_linear)"/>
<path opacity="0.477214" fill-rule="evenodd" clip-rule="evenodd" d="M220.388 24.146C110.184 54.0949 29.1404 154.855 29.1404 274.543C29.1404 379.19 91.0934 469.366 180.323 510.397C284.623 474.176 359.492 375.03 359.492 258.397C359.492 157.324 303.267 69.3837 220.388 24.146Z" fill="url(#paint5_linear)"/>
<path opacity="0.180315" fill-rule="evenodd" clip-rule="evenodd" d="M142.584 489.044C189.738 510.253 238.947 486.256 300.041 456.462C352.427 430.916 413.55 401.109 489.609 391.884C501.903 390.393 513.101 388.167 523.284 385.316C539.169 351.722 548.052 314.17 548.052 274.543C548.052 248.275 544.149 222.918 536.889 199.021C528.697 201.615 520.466 204.86 512.527 207.989C491.8 216.16 473.061 223.547 462.17 216.532C452.561 210.342 451.008 200.378 449.293 189.379C446.795 173.352 443.954 155.129 415.346 143.194C392.556 133.685 364.674 137.431 339.216 140.852C310.787 144.672 285.381 148.086 273.463 132.182C250.872 102.038 217.285 62.0146 134.437 134.142C54.9634 203.333 42.1446 370.499 98.98 451.641C112.07 465.65 126.693 478.207 142.584 489.044Z" fill="url(#paint6_linear)"/>
<path fill-rule="evenodd" clip-rule="evenodd" d="M543.187 224.276C513.997 240.66 475.209 268.195 485.323 294.587C493.315 315.445 483.665 332.926 475.926 346.944C468.379 360.616 462.65 370.994 476.883 377.996C487.247 383.095 504.738 385.35 522.89 386.146C539.022 352.341 548.052 314.497 548.052 274.543C548.052 257.345 546.379 240.538 543.187 224.276Z" fill="url(#paint7_linear)"/>
<path opacity="0.547224" d="M498.163 178.927C509.392 181.11 517.448 188.262 516.157 194.903C515.846 196.505 515.018 197.931 513.785 199.142C515.524 201.017 516.371 203.138 515.973 205.19C515.045 209.959 507.736 212.551 499.647 210.978C492.328 209.556 486.878 205.212 486.592 200.866C479.163 197.664 474.488 192.176 475.494 186.999C476.785 180.358 486.934 176.744 498.163 178.927Z" fill="black" fill-opacity="0.28827"/>
<path d="M330.212 79.9048C338.863 83.188 346.258 76.9221 346.258 75.3846C346.258 73.8471 339.877 72.6007 332.005 72.6007C324.133 72.6007 317.751 73.8471 317.751 75.3846C317.751 76.9221 321.56 76.6216 330.212 79.9048Z" fill="black" fill-opacity="0.28827"/>
<path d="M316.31 73.7879C318.259 78.3689 325.647 72.7882 327.245 74.8659C328.844 76.9435 328.034 78.7124 331.64 79.1457C335.247 79.5791 335.602 75.6262 339.149 75.4088C342.697 75.1915 344.798 76.0005 346.034 72.2833C347.27 68.566 341.555 67.0244 341.263 65.522C340.971 64.0195 341.083 60.1229 338.574 59.5393C336.064 58.9557 335.048 59.0301 329.32 62.4094C323.592 65.7887 314.361 69.2069 316.31 73.7879Z" fill="url(#paint8_linear)"/>
<path opacity="0.180315" d="M329.079 62.5484L330.144 61.9255C335.152 59.0228 336.189 58.9834 338.573 59.5378C339.126 59.6665 339.552 59.9562 339.883 60.3459C338.504 60.1847 337.006 60.4315 335.389 61.0859L335.133 61.1939C332.844 62.199 326.493 65.8324 316.079 72.0942C316.64 68.3971 324.078 65.4527 329.079 62.5484Z" fill="url(#paint9_linear)"/>
<path d="M340.834 62.5399L340.847 62.5997C341.083 63.7123 341.133 64.8529 341.263 65.5207C341.308 65.7491 341.477 65.9784 341.729 66.216C340.391 66.4083 339.544 66.8256 339.189 67.4675C338.03 69.5647 340.134 70.7102 339.657 73.0951C339.538 73.6905 339.253 74.4728 338.804 75.442C335.574 75.8855 335.125 79.5632 331.64 79.1444C328.964 78.8229 328.72 77.7662 328.119 76.3936C329.483 75.9486 330.454 75.4081 331.031 74.7717C332.695 72.9381 330.947 66.3361 334.421 64.1672C336.035 63.1592 338.173 62.6167 340.834 62.5399Z" fill="black" fill-opacity="0.28827"/>
<path opacity="0.150902" d="M453.013 106.872C457.02 109.279 461.14 109.777 462.217 107.985C463.294 106.193 460.047 104.241 456.913 100.381C453.78 96.5208 448.786 97.4753 447.709 99.2676C446.632 101.06 449.007 104.464 453.013 106.872Z" fill="url(#paint10_linear)"/>
<path d="M452.325 108.017C456.331 110.424 460.452 110.923 461.529 109.13C462.606 107.338 459.428 105.27 456.225 101.526C453.022 97.7829 448.098 98.6206 447.021 100.413C445.944 102.205 448.319 105.61 452.325 108.017Z" fill="url(#paint11_linear)"/>
<path opacity="0.129255" d="M194.594 142.403C232.882 142.403 200.18 180.563 243.036 180.563C295.353 180.563 266.619 217.581 304.17 214.787C341.721 211.993 332.857 259.966 359.901 248.345C386.945 236.724 424.65 250.51 444.589 299.985C454.559 324.724 422.439 399.432 341.016 407.308C259.593 415.184 206.293 513.519 150.6 481.048C25.4737 408.096 126.153 142.403 194.594 142.403Z" fill="url(#paint12_linear)"/>
<path opacity="0.134673" d="M416.462 229.155C414.224 234.27 415.588 240.343 425.891 242.766C436.194 245.189 465.885 239.58 449.864 237.909C423.729 235.183 433.576 219.98 429.141 219.98C424.707 219.98 418.699 224.041 416.462 229.155Z" fill="url(#paint13_linear)"/>
<path fill-rule="evenodd" clip-rule="evenodd" d="M172.322 217.709C210.936 209.579 196.36 250.199 203.515 257.676C228.861 284.161 268.485 222.835 295.639 257.676C322.793 292.518 373.772 268.39 395.002 287.87C430.767 320.686 405.544 355.554 303.054 390.273C255.832 406.269 227.233 446.785 187.717 455.132C86.8972 476.429 127.208 227.207 172.322 217.709Z" fill="#F2F49F" fill-opacity="0.0742188" stroke="#A75151" stroke-opacity="0.448836" stroke-width="1.29076"/>
<path fill-rule="evenodd" clip-rule="evenodd" d="M343.137 330.18C339.312 344.62 368.113 345.217 375.249 320.718C382.384 296.219 346.962 315.739 343.137 330.18Z" fill="#F2F49F" fill-opacity="0.0742188" stroke="#A75151" stroke-opacity="0.448836" stroke-width="1.29076"/>
<path fill-rule="evenodd" clip-rule="evenodd" d="M198.506 433.419C238.008 413.143 221.399 387.253 268.852 383.858C316.305 380.463 298.913 351.581 323.773 327.902C348.633 304.223 293.927 324.981 280.575 302.095C267.223 279.208 234.995 330.2 176.351 308.183C157.827 301.229 148.827 355.999 152.142 387.584C155.589 420.432 178.367 443.756 198.506 433.419Z" fill="#F2F49F" fill-opacity="0.0742188" stroke="#A75151" stroke-opacity="0.448836" stroke-width="1.29076"/>
<path opacity="0.0602679" d="M301.209 197.641C316.964 205.212 330.97 185.901 342.789 199.826C354.608 213.751 364.149 236.263 399.588 214.618C435.028 192.973 419.626 157.394 391.105 151.777C362.584 146.16 320.697 161.552 296.31 156.788C271.922 152.024 276.462 142.403 258.459 142.403C240.456 142.403 231.464 170.505 258.459 170.505C285.454 170.505 285.454 190.07 301.209 197.641Z" fill="url(#paint14_linear)"/>
<path d="M365.476 203.482C372.179 203.482 377.613 201.239 377.613 198.471C377.613 195.704 372.179 193.46 365.476 193.46C358.772 193.46 353.338 195.704 353.338 198.471C353.338 201.239 358.772 203.482 365.476 203.482Z" fill="black" fill-opacity="0.28827"/>
<path d="M368.261 196.994C367.358 197.347 361.44 203.126 358.468 202.133C355.497 201.139 349.717 197.056 350.867 195.065C352.016 193.074 356.033 191.518 355.125 189.409C354.216 187.3 357.468 186.763 357.468 186.763C357.468 186.763 356.544 185.232 358.047 184.348C359.549 183.464 371.391 180.113 372.346 181.608C373.3 183.102 371.272 185.202 371.272 185.202C371.272 185.202 375.259 187.788 374.994 189.182C374.729 190.575 373.866 191.218 373.615 192.913C373.363 194.609 372.894 197.333 371.532 197.434C370.17 197.536 369.164 196.641 368.261 196.994Z" fill="url(#paint15_linear)"/>
<path opacity="0.180315" d="M358.654 187.657C359.341 188.33 358.775 189.71 356.953 191.797C357.151 190.497 357.205 189.511 357.117 188.839C357.055 188.369 356.882 187.742 356.598 186.958C356.857 186.881 357.147 186.816 357.468 186.763C357.437 186.712 357.409 186.662 357.382 186.612C357.849 186.936 358.273 187.285 358.654 187.657Z" fill="url(#paint16_linear)"/>
<path opacity="0.180315" d="M371.272 185.202C372.015 185.684 372.647 186.135 373.169 186.555L369.64 191.984C369.111 189.802 368.936 188.279 369.114 187.415C369.247 186.772 370.004 185.995 371.384 185.084L371.272 185.202Z" fill="url(#paint17_linear)"/>
<path d="M358.468 202.133C356.863 201.595 354.437 200.156 352.728 198.633C354.784 198.487 358.716 199.162 359.725 199.327C361.151 199.559 361.976 196.528 363.009 195.669C363.596 195.181 365.312 195.639 368.158 197.044C366.983 197.709 361.345 203.095 358.468 202.133Z" fill="black" fill-opacity="0.28827"/>
</g>
<defs>
<filter id="filter0_d" x="0.0877495" y="0.560843" width="577.018" height="577.018" filterUnits="userSpaceOnUse" color-interpolation-filters="sRGB">
<feFlood flood-opacity="0" result="BackgroundImageFix"/>
<feColorMatrix in="SourceAlpha" type="matrix" values="0 0 0 0 0 0 0 0 0 0 0 0 0 0 0 0 0 0 127 0"/>
<feOffset dy="14.5263"/>
<feGaussianBlur stdDeviation="14.5263"/>
<feColorMatrix type="matrix" values="0 0 0 0 0.976471 0 0 0 0 0.521569 0 0 0 0 0 0 0 0 0.29 0"/>
<feBlend mode="normal" in2="BackgroundImageFix" result="effect1_dropShadow"/>
<feBlend mode="normal" in="SourceGraphic" in2="effect1_dropShadow" result="shape"/>
</filter>
<linearGradient id="paint0_linear" x1="617.574" y1="11.6929" x2="38.9744" y2="11.6929" gradientUnits="userSpaceOnUse">
<stop stop-color="#431818"/>
<stop offset="1" stop-color="#D13333"/>
</linearGradient>
<linearGradient id="paint1_linear" x1="505.603" y1="355.064" x2="-24.9349" y2="355.064" gradientUnits="userSpaceOnUse">
<stop stop-color="#3C003B"/>
<stop offset="1" stop-color="#3E00FF"/>
</linearGradient>
<linearGradient id="paint2_linear" x1="496.603" y1="522.233" x2="483.47" y2="437.138" gradientUnits="userSpaceOnUse">
<stop stop-color="#FF3F5D"/>
<stop offset="1" stop-color="#FF3F87" stop-opacity="0.179223"/>
</linearGradient>
<linearGradient id="paint3_linear" x1="289.982" y1="170.587" x2="350.098" y2="52.812" gradientUnits="userSpaceOnUse">
<stop stop-color="#FFD73F"/>
<stop offset="1" stop-color="#FF3F87" stop-opacity="0.179223"/>
</linearGradient>
<linearGradient id="paint4_linear" x1="235.138" y1="22.7794" x2="163.928" y2="219.457" gradientUnits="userSpaceOnUse">
<stop stop-color="#3C003B"/>
<stop offset="1" stop-color="#3E00FF"/>
</linearGradient>
<linearGradient id="paint5_linear" x1="343.087" y1="31.3207" x2="40.3249" y2="31.3207" gradientUnits="userSpaceOnUse">
<stop stop-color="#5A168D" stop-opacity="0.01"/>
<stop offset="1" stop-color="#FFDD32"/>
</linearGradient>
<linearGradient id="paint6_linear" x1="600.18" y1="148.203" x2="223.698" y2="-147.075" gradientUnits="userSpaceOnUse">
<stop stop-color="#3B004E"/>
<stop offset="1" stop-color="#FFA7A7"/>
</linearGradient>
<linearGradient id="paint7_linear" x1="541.809" y1="255.434" x2="460.089" y2="249.691" gradientUnits="userSpaceOnUse">
<stop stop-color="#70212C"/>
<stop offset="1" stop-color="#732323"/>
</linearGradient>
<linearGradient id="paint8_linear" x1="353.98" y1="60.3002" x2="324.003" y2="47.4029" gradientUnits="userSpaceOnUse">
<stop stop-color="#49004A"/>
<stop offset="1" stop-color="#D13333"/>
</linearGradient>
<linearGradient id="paint9_linear" x1="346.5" y1="62.2101" x2="340.128" y2="49.8026" gradientUnits="userSpaceOnUse">
<stop stop-color="#D13333"/>
<stop offset="1" stop-color="white"/>
</linearGradient>
<linearGradient id="paint10_linear" x1="447.325" y1="94.6964" x2="436.49" y2="104.32" gradientUnits="userSpaceOnUse">
<stop stop-color="#3C0000"/>
<stop offset="1" stop-color="#3B13B8"/>
</linearGradient>
<linearGradient id="paint11_linear" x1="461.765" y1="106.17" x2="450.579" y2="93.8342" gradientUnits="userSpaceOnUse">
<stop stop-color="#3C0000"/>
<stop offset="1" stop-color="#6A1159"/>
</linearGradient>
<linearGradient id="paint12_linear" x1="378.968" y1="215.015" x2="78.8078" y2="125.864" gradientUnits="userSpaceOnUse">
<stop stop-color="#AB3438"/>
<stop offset="1" stop-color="#FFA7A7"/>
</linearGradient>
<linearGradient id="paint13_linear" x1="432.322" y1="173.836" x2="308.917" y2="283.177" gradientUnits="userSpaceOnUse">
<stop stop-color="#AB3438"/>
<stop offset="1" stop-color="#FFA7A7"/>
</linearGradient>
<linearGradient id="paint14_linear" x1="462.989" y1="187.478" x2="417.824" y2="70.2861" gradientUnits="userSpaceOnUse">
<stop stop-color="#AB3438"/>
<stop offset="1" stop-color="#FFA7A7"/>
</linearGradient>
<linearGradient id="paint15_linear" x1="381.621" y1="193.657" x2="365.423" y2="175.286" gradientUnits="userSpaceOnUse">
<stop stop-color="#49004A"/>
<stop offset="1" stop-color="#D13333"/>
</linearGradient>
<linearGradient id="paint16_linear" x1="358.879" y1="190.492" x2="357.048" y2="186.158" gradientUnits="userSpaceOnUse">
<stop stop-color="#D13333"/>
<stop offset="1" stop-color="white"/>
</linearGradient>
<linearGradient id="paint17_linear" x1="372.112" y1="189.894" x2="369.283" y2="185.284" gradientUnits="userSpaceOnUse">
<stop stop-color="#D13333"/>
<stop offset="1" stop-color="white"/>
</linearGradient>
</defs>
</svg>
