<svg width="1439" height="275" viewBox="0 0 1439 275" fill="none" xmlns="http://www.w3.org/2000/svg">
<path d="M281.655 113.188C277.617 38.8615 203.588 11.7424 132.252 11.7424H-1V370.317H1511.88V11.7424H1393.43C1311.33 11.7424 1257.49 39.8659 1244.03 113.188C1227.88 101.135 1187.5 102.139 1164.62 113.188C1147.12 35.8483 1019.25 44.888 1008.48 113.188C995.023 108.166 972.141 110.175 965.411 124.236C926.378 113.188 896.766 120.219 867.155 135.285C822.738 124.236 776.974 135.285 760.823 163.408C720.443 128.254 673.334 124.236 623.533 135.285C580.46 116.676 565.656 108.166 518.547 113.188C499.703 29.8218 365.106 51.9188 362.414 113.188C335.494 104.148 304.537 105.153 281.655 113.188Z" fill="url(#paint0_radial)"/>
<path d="M219.63 34.6079C211.898 15.4082 204.469 8.01436 182.836 3.96063H122.74V219.48H1421.56V3.96063H1339.38C1313.67 7.37805 1300.99 11.4157 1291.55 34.6079C1253.53 27.6872 1235.14 34.6079 1216.74 52.4032C1168.91 24.7214 1103.9 23.7327 1065.88 64.2666C1024.18 3.95974 915.03 -25.6984 823.046 34.6079C772.761 3.96063 718.797 9.89202 679.551 34.6079C612.096 -17.7894 509.073 -12.8455 448.977 64.2666C407.278 27.688 342.275 24.7222 298.123 52.4032C276.047 34.6079 249.065 29.6653 219.63 34.6079Z" fill="url(#paint1_radial)"/>
<path d="M907.724 81.3868C893.258 30.4668 859.506 26.3378 815.421 26.3388H765.826V220.383H1256.27V26.3388H1188.76C1133.4 25.5117 1107.14 26.3391 1093.02 81.3868C1060.3 71.7528 1035.85 92.3958 1032.4 126.113C1015.52 114.759 985.217 111.663 962.83 126.113C962.83 91.7077 934.243 75.8814 907.724 81.3868Z" fill="url(#paint2_radial)"/>
<defs>
<radialGradient id="paint0_radial" cx="0" cy="0" r="1" gradientUnits="userSpaceOnUse" gradientTransform="translate(755.439 81.0468) rotate(90) scale(179.789 758.558)">
<stop stop-color="#DB684C"/>
<stop offset="1" stop-color="#FF8F70" stop-opacity="0"/>
</radialGradient>
<radialGradient id="paint1_radial" cx="0" cy="0" r="1" gradientUnits="userSpaceOnUse" gradientTransform="translate(758.044 55.3629) rotate(90) scale(164.111 594.501)">
<stop stop-color="#F0A795"/>
<stop offset="1" stop-color="#FF8C70" stop-opacity="0"/>
</radialGradient>
<radialGradient id="paint2_radial" cx="0" cy="0" r="1" gradientUnits="userSpaceOnUse" gradientTransform="translate(1001.4 83.9932) rotate(84.2834) scale(96.8155 190.252)">
<stop stop-color="#FF8C70"/>
<stop offset="1" stop-color="#FF8C70" stop-opacity="0"/>
</radialGradient>
</defs>
</svg>
